<svg width="18" height="17" viewBox="0 0 18 17" fill="none" xmlns="http://www.w3.org/2000/svg">
<path fill-rule="evenodd" clip-rule="evenodd" d="M15.2177 4.2C15.2886 4.25912 15.3465 4.33107 15.3879 4.41167C15.4294 4.49227 15.4536 4.57992 15.4591 4.66951C15.4647 4.7591 15.4515 4.84885 15.4203 4.93353C15.3891 5.01822 15.3406 5.09616 15.2775 5.16282L7.80266 13.0637C7.73926 13.1306 7.66247 13.1848 7.57679 13.2231C7.49111 13.2613 7.39827 13.2829 7.30372 13.2866C7.20916 13.2903 7.11479 13.2759 7.02614 13.2444C6.93748 13.2128 6.85633 13.1648 6.78744 13.103L2.4621 9.22532C2.33234 9.10732 2.25377 8.94726 2.24192 8.77676C2.23007 8.60626 2.28581 8.43774 2.39811 8.30448C2.45873 8.23224 2.53413 8.17248 2.61974 8.12884C2.70535 8.0852 2.79937 8.05858 2.89611 8.0506C2.99285 8.04262 3.09028 8.05345 3.18249 8.08243C3.27471 8.1114 3.35977 8.15793 3.43253 8.21917L6.78815 11.0941C6.92826 11.2142 7.11272 11.2764 7.30097 11.267C7.48921 11.2576 7.66583 11.1774 7.792 11.044L14.221 4.25485C14.3461 4.1227 14.5209 4.0428 14.7074 4.03241C14.8939 4.02202 15.0773 4.08198 15.2177 4.19933V4.2Z" fill="#BB3024"/>
</svg>
