<svg width="34" height="34" viewBox="0 0 34 34" fill="none" xmlns="http://www.w3.org/2000/svg">
<path d="M17 19.975C15.4062 19.975 14.025 18.7 14.025 17C14.025 15.4062 15.3 14.025 17 14.025C18.5938 14.025 19.975 15.3 19.975 17C19.975 18.5937 18.5938 19.975 17 19.975Z" fill="#BB3024"/>
<path fill-rule="evenodd" clip-rule="evenodd" d="M20.6125 9.775H13.3875C12.5375 9.88125 12.1125 9.9875 11.7938 10.0937C11.3688 10.2 11.05 10.4125 10.7313 10.7312C10.479 10.9835 10.3599 11.2357 10.2158 11.5406C10.1779 11.6209 10.1381 11.7051 10.0938 11.7937C10.0773 11.8431 10.0583 11.8949 10.038 11.9505C9.92684 12.2542 9.775 12.669 9.775 13.3875V20.6125C9.88125 21.4625 9.9875 21.8875 10.0938 22.2062C10.2 22.6312 10.4125 22.95 10.7313 23.2687C10.9835 23.521 11.2357 23.6401 11.5406 23.7842C11.621 23.8222 11.705 23.8619 11.7938 23.9062C11.8431 23.9227 11.8949 23.9417 11.9505 23.962C12.2542 24.0732 12.669 24.225 13.3875 24.225H20.6125C21.4625 24.1187 21.8875 24.0125 22.2062 23.9062C22.6312 23.8 22.95 23.5875 23.2687 23.2687C23.521 23.0165 23.6401 22.7643 23.7842 22.4594C23.8222 22.379 23.8619 22.2949 23.9062 22.2062C23.9227 22.1569 23.9417 22.1051 23.962 22.0495C24.0732 21.7458 24.225 21.331 24.225 20.6125V13.3875C24.1187 12.5375 24.0125 12.1125 23.9062 11.7937C23.8 11.3687 23.5875 11.05 23.2687 10.7312C23.0165 10.479 22.7643 10.3599 22.4594 10.2158C22.3792 10.1779 22.2948 10.138 22.2062 10.0937C22.1569 10.0773 22.1051 10.0583 22.0495 10.038C21.7458 9.92684 21.331 9.775 20.6125 9.775ZM17 12.4312C14.45 12.4312 12.4312 14.45 12.4312 17C12.4312 19.55 14.45 21.5687 17 21.5687C19.55 21.5687 21.5687 19.55 21.5687 17C21.5687 14.45 19.55 12.4312 17 12.4312ZM22.7375 12.325C22.7375 12.9118 22.2618 13.3875 21.675 13.3875C21.0882 13.3875 20.6125 12.9118 20.6125 12.325C20.6125 11.7382 21.0882 11.2625 21.675 11.2625C22.2618 11.2625 22.7375 11.7382 22.7375 12.325Z" fill="#BB3024"/>
<path fill-rule="evenodd" clip-rule="evenodd" d="M0 17C0 7.61116 7.61116 0 17 0C26.3888 0 34 7.61116 34 17C34 26.3888 26.3888 34 17 34C7.61116 34 0 26.3888 0 17ZM13.3875 8.18125H20.6125C21.5687 8.2875 22.2062 8.39375 22.7375 8.60625C23.375 8.925 23.8 9.1375 24.3312 9.66875C24.8625 10.2 25.1813 10.7312 25.3938 11.2625C25.6063 11.7937 25.8187 12.4312 25.8187 13.3875V20.6125C25.7125 21.5687 25.6063 22.2062 25.3938 22.7375C25.075 23.375 24.8625 23.8 24.3312 24.3312C23.8 24.8625 23.2687 25.1812 22.7375 25.3937C22.2062 25.6062 21.5687 25.8187 20.6125 25.8187H13.3875C12.4313 25.7125 11.7938 25.6062 11.2625 25.3937C10.625 25.075 10.2 24.8625 9.66875 24.3312C9.1375 23.8 8.81875 23.2687 8.60625 22.7375C8.39375 22.2062 8.18125 21.5687 8.18125 20.6125V13.3875C8.2875 12.4312 8.39375 11.7937 8.60625 11.2625C8.925 10.625 9.1375 10.2 9.66875 9.66875C10.2 9.1375 10.7313 8.81875 11.2625 8.60625C11.7938 8.39375 12.4313 8.18125 13.3875 8.18125Z" fill="#BB3024"/>
</svg>
