<svg width="121" height="39" viewBox="0 0 121 39" fill="none" xmlns="http://www.w3.org/2000/svg">
<g clip-path="url(#clip0_238_59)">
<path d="M79.3931 6.16877C79.435 6.25517 79.4898 6.34988 79.5573 6.45334C79.6244 6.55691 79.7088 6.64736 79.8099 6.72501C79.911 6.80255 80.0202 6.84138 80.1381 6.84138H80.1685C80.3788 6.84138 80.5747 6.71626 80.6526 6.51641C80.6674 6.4787 80.6812 6.44044 80.6938 6.4015C80.7443 6.24631 80.7861 6.1259 80.8202 6.03927C80.8367 6.00494 80.8833 5.96173 80.959 5.91C81.0347 5.85816 81.1144 5.7979 81.1989 5.72889C81.2829 5.66022 81.3587 5.5866 81.4263 5.50884L81.4284 5.50659C81.5299 5.38855 81.4859 5.20362 81.3425 5.14672C81.2169 5.0969 81.0806 5.04079 80.9337 4.97852C80.6895 4.87505 80.5002 4.82321 80.3654 4.82321C80.2645 4.82321 80.1465 4.858 80.0119 4.92667C79.8769 4.99591 79.7549 5.08186 79.6458 5.18544C79.536 5.28901 79.4475 5.41436 79.3805 5.56068C79.313 5.70746 79.2961 5.85816 79.33 6.01335C79.33 6.03086 79.3508 6.0827 79.3931 6.16877Z" fill="#353535"/>
<path d="M120.357 4.97852C120.112 4.87505 119.922 4.82321 119.787 4.82321C119.687 4.82321 119.569 4.858 119.434 4.92667C119.299 4.99591 119.178 5.08186 119.068 5.18544C118.958 5.28901 118.869 5.41436 118.803 5.56068C118.736 5.70746 118.718 5.85816 118.752 6.01335C118.752 6.03086 118.773 6.0827 118.816 6.16877C118.857 6.25517 118.912 6.34988 118.98 6.45334C119.047 6.55669 119.132 6.64736 119.233 6.72501C119.333 6.80255 119.443 6.84138 119.56 6.84138H119.914C119.998 6.70347 120.066 6.55669 120.116 6.4015C120.167 6.24631 120.209 6.1259 120.243 6.03927C120.259 6.00494 120.306 5.96173 120.382 5.91C120.458 5.85816 120.537 5.7979 120.621 5.72889C120.705 5.66022 120.781 5.5866 120.849 5.50884C120.916 5.43141 120.966 5.34074 121 5.23728C120.815 5.16849 120.6 5.08186 120.357 4.97852Z" fill="#353535"/>
<path d="M82.197 16.0786C81.8013 16.3721 81.4685 16.5876 81.1994 16.7254C81.0644 16.7945 80.9002 16.8807 80.7069 16.9843C80.5133 17.0877 80.3068 17.2002 80.0882 17.3206C79.8692 17.4414 79.6545 17.5623 79.4443 17.6828C79.2335 17.8036 79.044 17.9071 78.8759 17.9933C78.6904 18.0969 78.4592 18.252 78.1814 18.459C77.9036 18.6659 77.6214 18.856 77.3353 19.0282C77.0489 19.2009 76.7711 19.3258 76.5019 19.4032C76.3858 19.4367 76.2791 19.4487 76.1819 19.4389C75.9727 19.4179 75.8371 19.2005 75.8996 18.9952C75.9744 18.7494 76.1246 18.4715 76.3503 18.1614C76.67 17.7216 77.0828 17.2603 77.5878 16.7772C78.093 16.2944 78.6568 15.8198 79.2801 15.3541C79.9027 14.8883 80.5259 14.4704 81.149 14.0991C81.7717 13.7285 82.365 13.431 82.9294 13.2065C83.4935 12.9825 83.9606 12.8702 84.3311 12.8702C84.5302 12.8534 84.7128 12.8446 84.8792 12.8442C84.8843 12.8446 84.8892 12.8449 84.8942 12.8452C85.0261 12.8626 85.1499 12.8881 85.2657 12.922C85.3623 12.9505 85.4195 13.0081 85.4368 13.0945C85.4436 13.1284 85.4344 13.1636 85.4113 13.1888C85.1802 13.4403 84.8919 13.7354 84.5458 14.0734C84.1835 14.427 83.8008 14.7763 83.3967 15.1213C82.9925 15.4664 82.5924 15.7855 82.197 16.0786ZM59.9283 16.1157C59.6467 15.9772 59.518 15.7621 59.5424 15.4705C59.5677 15.169 59.6852 14.8327 59.8959 14.4613C60.1062 14.0907 60.3885 13.7072 60.742 13.3101C61.0957 12.9134 61.4575 12.564 61.8281 12.2621C62.1982 11.9606 62.5561 11.7187 62.9014 11.5376C63.2464 11.3565 63.5115 11.2919 63.6969 11.3436C63.8989 11.3267 64.0165 11.3654 64.0505 11.4601C64.0841 11.5551 64.0841 11.6715 64.0505 11.8094C64.0165 11.9475 63.9621 12.0854 63.8864 12.2232C63.8107 12.3616 63.7476 12.465 63.6969 12.5339C63.6125 12.6721 63.478 12.8791 63.2929 13.1547C63.1075 13.431 62.9014 13.7156 62.6741 14.0087C62.4467 14.3021 62.2233 14.5822 62.0049 14.8495C61.7857 15.1172 61.609 15.3113 61.4744 15.4317C60.4559 16.301 59.9283 16.1157 59.9283 16.1157ZM56.9915 22.0815C56.7473 22.3746 56.4359 22.7152 56.0571 23.1034C55.6783 23.4914 55.2829 23.888 54.8701 24.2935C54.4576 24.6986 54.1503 25.0569 53.9482 25.3674C53.0389 26.7297 51.9953 28.0883 50.8165 29.4426C49.6381 30.7965 48.4259 32.0513 47.1798 33.2071C46.8261 33.5347 46.5191 33.8323 46.2578 34.0998C45.9969 34.3671 45.7527 34.6172 45.5253 34.8502C45.2982 35.0831 45.0668 35.3071 44.8309 35.5229C44.6022 35.7321 44.3337 35.9373 44.0256 36.1385C44.0077 36.1503 43.9853 36.156 43.9642 36.1532C43.7791 36.1291 43.643 36.0397 43.5554 35.885C43.463 35.7209 43.4166 35.5269 43.4166 35.3031C43.4166 35.0786 43.4504 34.8586 43.5175 34.6431C43.5844 34.4292 43.6594 34.2539 43.7425 34.1166C43.7441 34.1139 43.7457 34.1116 43.7475 34.109C44.117 33.593 44.4571 33.1025 44.7677 32.638C45.0795 32.1722 45.4035 31.715 45.7401 31.2667C46.0771 30.8179 46.439 30.365 46.8261 29.9082C47.2135 29.451 47.6596 28.9724 48.1645 28.4723C49.0233 27.6269 49.9073 26.799 50.8165 25.9883C51.8437 25.0913 52.8919 24.2632 53.9609 23.5044C55.0058 22.7625 56.0542 22.1118 57.1071 21.5514C57.1637 21.5211 57.2366 21.5592 57.2383 21.6246C57.2406 21.7283 57.1583 21.8805 56.9915 22.0815ZM114.206 16.6996C114.121 16.6825 113.94 16.7603 113.663 16.9324C113.538 17.0098 113.396 17.1093 113.239 17.2284C113.239 17.2284 109.969 19.3129 108.381 19.4163H108.296C108.212 19.4163 108.098 19.4032 107.955 19.3774C107.851 19.3587 107.735 19.3102 107.609 19.2319C107.553 19.1973 107.509 19.1159 107.519 19.0501C107.659 18.1086 109.907 16.4996 109.907 16.4996C109.911 16.4951 109.915 16.491 109.918 16.4865C109.954 16.4557 110.098 16.3369 110.354 16.1303C110.632 15.9063 110.926 15.6432 111.238 15.3412C111.549 15.0395 111.828 14.7291 112.071 14.4097C112.316 14.0907 112.412 13.8364 112.362 13.6465C112.346 13.5604 112.291 13.4742 112.199 13.3876C112.105 13.3015 112 13.2283 111.883 13.1676C111.764 13.1074 111.646 13.0558 111.528 13.0124C111.411 12.9697 111.318 12.9479 111.251 12.9479C110.965 12.9479 110.686 13.0643 110.417 13.2971L108.978 14.5779L106.021 16.7359C100.889 19.7306 100.719 18.5872 100.719 18.5872C100.685 18.3967 100.711 18.1715 100.795 17.9119C100.879 17.6524 100.98 17.388 101.098 17.1196L101.704 15.665C101.872 15.3796 102.028 15.1023 102.171 14.8339C102.314 14.5655 102.437 14.3186 102.538 14.0935C102.639 13.8683 102.689 13.6954 102.689 13.5741C102.689 13.4358 102.677 13.336 102.651 13.2753C102.626 13.2147 102.596 13.1674 102.563 13.1326C102.529 13.0978 102.506 13.0591 102.474 13.0416C102.168 12.8711 101.149 13.1063 101.149 13.1063C100.929 13.141 100.77 13.1714 100.669 13.1971C100.568 13.2231 100.467 13.2623 100.366 13.3142C100.265 13.3663 100.147 13.4442 100.012 13.5482C99.8772 13.652 99.675 13.7992 99.4058 13.9897C99.288 14.0761 99.1533 14.1626 99.0018 14.2493C98.8504 14.3357 98.7028 14.4137 98.56 14.4829C98.4166 14.5525 98.2861 14.6129 98.1683 14.6648L98.165 14.6663C98.0614 14.7119 97.9616 14.595 98.0183 14.4952C98.0544 14.4317 98.096 14.3757 98.1432 14.3273C98.2442 14.2233 98.3408 14.1239 98.4336 14.0283C98.5259 13.9334 98.6104 13.8385 98.6861 13.7431C98.7619 13.6477 98.7997 13.5222 98.7997 13.3663C98.7997 13.228 98.7449 13.0937 98.6356 12.9635C98.5259 12.8337 98.3958 12.7169 98.2442 12.6131C98.0925 12.5092 97.9325 12.4267 97.7643 12.3659C97.5958 12.3054 97.4442 12.275 97.3097 12.275C97.1747 12.275 97.032 12.2925 96.8803 12.3268C96.7287 12.3616 96.5772 12.4004 96.4257 12.4432C96.2743 12.4866 96.1393 12.5339 96.0215 12.5856L94.8219 13.1807C93.1235 14.1887 86.3211 18.3618 84.6692 18.7816C83.2419 19.1444 83.0551 18.7122 83.0955 18.3723C83.1161 18.1976 83.2036 18.0377 83.3282 17.9163C83.8064 17.4502 84.2094 17.0629 84.5458 16.7642C84.9247 16.4279 85.2657 16.1005 85.5686 15.781C85.8718 15.4621 86.1623 15.1042 86.4401 14.7072C86.6637 14.388 86.9173 13.9791 87.2009 13.4808C87.3154 13.2797 87.2327 13.0209 87.0253 12.9255C86.5702 12.716 86.2067 12.5468 85.9348 12.4174C85.5896 12.2537 85.2992 12.1327 85.0637 12.0551C84.8277 11.9776 84.5876 11.9303 84.3438 11.9127C84.0995 11.8958 83.7503 11.8869 83.2957 11.8869C82.7567 11.8869 82.1883 11.9516 81.5909 12.081C80.9931 12.2105 80.3912 12.4045 79.7851 12.6631C79.179 12.922 78.5767 13.2453 77.9793 13.6335C77.3815 14.0216 76.8215 14.4658 76.2999 14.966C76.1142 15.1561 75.8577 15.4103 75.5294 15.7294C75.2092 16.0409 74.8973 16.3783 74.593 16.7387C74.5002 16.7769 74.3808 16.8408 74.2331 16.9324C74.1084 17.0098 73.9667 17.1093 73.8098 17.2284H73.8093C73.8093 17.2284 70.539 19.3129 68.9512 19.4163H68.866C68.7817 19.4163 68.6681 19.4032 68.5251 19.3774C68.4208 19.3587 68.3055 19.3102 68.1789 19.2319C68.1233 19.1973 68.0791 19.1159 68.0889 19.0501C68.2296 18.1086 70.4772 16.4996 70.4772 16.4996C70.4812 16.4951 70.4848 16.491 70.4889 16.4865C70.5233 16.4557 70.6686 16.3369 70.9244 16.1303C71.2022 15.9063 71.4967 15.6432 71.8084 15.3412C72.1196 15.0395 72.3976 14.7291 72.6418 14.4097C72.8858 14.0907 72.9829 13.8364 72.9323 13.6465C72.9153 13.5604 72.8604 13.4742 72.7682 13.3876C72.6754 13.3015 72.57 13.2283 72.4524 13.1676C72.3344 13.1074 72.2164 13.0558 72.0988 13.0124C71.9808 12.9697 71.8881 12.9479 71.821 12.9479C71.5345 12.9479 71.2567 13.0643 70.9876 13.2971L70.69 13.5618L70.6899 13.562L69.548 14.5779L69.0602 15.0491L67.9487 16.0633C67.7004 16.2799 67.4631 16.4963 67.2347 16.7128C67.2345 16.7128 67.2343 16.7125 67.2339 16.7126C67.1835 16.7126 65.8436 17.4804 65.6416 17.5922C65.4396 17.7047 65.1998 17.8339 64.922 17.9804C64.6441 18.127 64.3492 18.278 64.0379 18.4332C63.7262 18.5885 63.4445 18.7177 63.1919 18.8213C62.0848 19.2308 61.525 18.9765 61.525 18.9765C61.3229 18.9594 61.2597 18.869 61.3354 18.7048C61.4099 18.5441 61.5286 18.371 61.6923 18.1851L62.2573 17.4628C62.5265 17.0404 62.8339 16.5617 63.1793 16.0268C63.5241 15.4924 63.8778 14.979 64.2399 14.4873C64.479 14.1624 64.6981 13.9036 64.8969 13.7105C65.1398 13.4747 65.3556 13.2112 65.551 12.9328C65.6883 12.7371 65.8279 12.5436 65.97 12.3527C66.239 11.9905 66.4834 11.6283 66.7023 11.2661C66.921 10.9037 67.0906 10.5465 67.258 10.2182C67.6476 9.45426 67.3843 9.14421 67.3843 9.14421C67.3503 9.09259 67.3212 9.04535 67.2958 9.00204C67.2707 8.95928 67.2285 8.92438 67.1697 8.89857C67.1142 8.87422 67.0406 8.8841 66.9485 8.92809C66.9379 8.93639 66.9271 8.94492 66.9165 8.95311C66.7189 9.18954 66.5253 9.42564 66.3361 9.66185C66.1423 9.90345 65.9657 10.1191 65.8059 10.3087C65.6455 10.4986 65.4983 10.658 65.3638 10.7872C65.2289 10.9167 65.1279 10.9814 65.0608 10.9814C64.9428 10.9814 64.8374 10.9556 64.745 10.9037C64.6524 10.852 64.5513 10.7963 64.4419 10.7356C64.3324 10.6754 64.2103 10.6236 64.0758 10.5804C63.9408 10.5375 63.764 10.5246 63.5454 10.5415C63.2423 10.5589 62.8843 10.6321 62.4721 10.7615C62.0594 10.8908 61.6342 11.0719 61.1966 11.3048C60.7585 11.5376 60.3292 11.8138 59.9086 12.1327C59.4875 12.4523 59.1129 12.8054 58.7847 13.1936C58.4563 13.5817 58.1952 14.0003 58.0017 14.4484C57.808 14.8973 57.7279 15.3715 57.7618 15.8717C57.7785 16.165 57.8711 16.4021 58.0397 16.5832C58.2077 16.7642 58.397 16.9065 58.6079 17.01C58.8181 17.1135 59.0372 17.1826 59.2645 17.217C59.2645 17.217 59.929 17.4548 61.0823 16.2885C61.1235 16.2467 61.1971 16.2755 61.2167 16.3314C61.2205 16.3419 61.2241 16.3532 61.2275 16.3651C61.2799 16.5474 61.2242 16.7437 61.0969 16.882C61.0021 16.9848 60.8796 17.1267 60.7293 17.3077C60.5355 17.5405 60.3292 17.7822 60.1106 18.0321C59.8916 18.2822 59.6895 18.5152 59.5045 18.7306C59.5026 18.7329 59.5009 18.7349 59.4989 18.7371C59.2362 18.9714 58.977 19.2025 58.7143 19.4369L56.9573 20.6299C56.9549 20.6318 56.9525 20.6336 56.9501 20.6355C56.7493 20.8065 56.5568 20.9607 56.3727 21.0981C56.1874 21.236 56.0358 21.3394 55.9181 21.4085C55.2279 21.8226 54.5081 22.2795 53.7588 22.78C53.0096 23.28 52.256 23.806 51.4983 24.3583C50.7407 24.9101 49.9917 25.4878 49.2506 26.0919C48.5099 26.6955 47.8109 27.3165 47.1544 27.9547C46.3967 28.6792 45.5929 29.4724 44.7425 30.3351C43.8924 31.1976 43.1347 32.0557 42.4693 32.9098C41.8046 33.7635 41.3077 34.5825 40.9793 35.3676C40.6543 36.1447 40.6386 36.7992 40.9327 37.3313C40.9402 37.3405 40.9479 37.3497 40.9555 37.3588C41.236 37.5959 41.4795 37.8248 41.6866 38.0457C41.8973 38.2695 42.1286 38.3646 42.381 38.3302C42.718 38.2784 43.0717 38.1491 43.4417 37.9421C43.8124 37.7351 44.1703 37.4894 44.5152 37.2047C44.8606 36.9202 45.1931 36.6266 45.5128 36.325C45.8327 36.023 46.1106 35.7598 46.346 35.5358C47.828 34.1212 49.1792 32.7111 50.3997 31.3054C51.6208 29.8993 52.7865 28.4981 53.8977 27.1008C54.605 26.2039 55.308 25.3674 56.0065 24.5911C56.7045 23.8155 57.4072 23.0141 58.1138 22.1867C58.1149 22.1854 58.1161 22.1841 58.1173 22.1829C58.1173 22.1829 59.1778 21.0427 61.3987 20.1407C61.6925 20.0213 62.0175 19.8909 62.3963 19.8044C62.7751 19.7183 63.1793 19.6103 63.6086 19.481C64.0379 19.3516 64.4838 19.1794 64.947 18.9635L65.8632 18.5135C65.7665 18.8086 65.7483 19.1266 65.8101 19.4681C65.8437 19.6581 65.9277 19.8174 66.0627 19.9467C66.1973 20.0761 66.3489 20.1795 66.5173 20.2573C66.6855 20.3347 66.8583 20.3906 67.035 20.4254C67.2118 20.4597 67.3672 20.4772 67.5023 20.4772C67.6703 20.4772 67.8725 20.4468 68.1084 20.3866C68.3441 20.3263 68.5883 20.2443 68.8408 20.1407C68.8408 20.1407 72.1716 18.6114 73.9816 17.61C73.9137 17.703 73.8391 17.7956 73.7869 17.8898C73.5761 18.2693 73.4878 18.6057 73.5217 18.8988C73.5887 19.4338 73.8161 19.8174 74.2035 20.0503C74.5907 20.2831 75.0201 20.3995 75.4917 20.3995C75.7608 20.3995 76.0724 20.3347 76.426 20.2055C76.7797 20.0761 77.1415 19.9079 77.5121 19.701C77.8822 19.4939 78.2572 19.2785 78.636 19.054C79.0149 18.8302 79.364 18.6143 79.684 18.4072C80.0036 18.2003 80.2814 18.0321 80.5176 17.9027C80.753 17.7732 80.9216 17.7087 81.0226 17.7087C81.0226 17.7087 81.3701 17.6009 81.4268 17.838C81.4476 17.9883 81.4587 18.1367 81.4602 18.2835C81.4634 18.6156 81.5367 18.9469 81.7113 19.227C81.849 19.4482 82.0556 19.6632 82.3611 19.7657C82.5613 19.8328 82.761 19.8692 82.9546 19.895C83.1481 19.921 83.287 19.9339 83.3714 19.9339C83.8091 19.9339 84.2719 19.8348 84.7604 19.6363L86.8535 18.5898C86.8571 18.588 87.3653 18.3124 87.3653 18.3124C87.4882 18.2499 87.5972 18.1968 87.7378 18.1226C88.2594 17.8468 88.9753 17.4329 89.8845 16.8807L91.0462 16.182L94.8346 14.0605C95.1037 13.9742 95.2848 13.9568 95.3776 14.0087C95.47 14.0605 95.5204 14.1426 95.5291 14.2544C95.5374 14.3669 95.5496 14.5014 95.4786 14.6165C95.1544 15.1426 94.3752 15.7729 94.3199 15.8173C94.318 15.8191 94.3159 15.821 94.3139 15.8228C93.9694 16.167 93.6086 16.5109 93.2309 16.8548C92.852 17.2002 92.4393 17.5405 91.9933 17.8769C91.6006 18.1727 91.1593 18.4384 90.6694 18.6743C90.4677 18.7714 90.3002 18.9303 90.1895 19.1281L90.1875 19.1317C90.137 19.2352 90.1031 19.3516 90.0866 19.481C90.0768 19.555 90.0892 19.6303 90.1236 19.707C90.1743 19.8205 90.27 19.9065 90.3805 19.959C90.6045 20.066 91.0718 20.2332 91.6272 20.115C91.726 20.094 91.8837 20.0507 92.0943 19.9221C92.3046 19.7935 92.5615 19.6351 92.8647 19.4462C93.1677 19.2578 93.5044 19.0475 93.8749 18.816C94.2451 18.5848 94.6325 18.3661 95.0367 18.1601C95.2552 18.0402 95.5374 17.8428 95.8827 17.5684C96.2276 17.2942 96.5899 17.0197 96.9688 16.7452C97.3475 16.4711 97.7138 16.231 98.0673 16.0252C98.421 15.8194 98.724 15.7252 98.9765 15.7422C99.1616 15.7597 99.2373 15.931 99.2039 16.2569C99.17 16.5828 99.1069 16.9509 99.0145 17.3625C98.9217 17.7741 98.8378 18.1727 98.7619 18.5584C98.7619 18.5584 98.6351 19.377 99.0145 19.7159C99.1129 19.8039 99.2078 19.8833 99.3176 19.9347C99.4268 19.986 99.5278 20.0159 99.6206 20.0245C99.713 20.0332 99.7848 20.0374 99.8353 20.0374C99.9024 20.0374 100.054 20.0073 100.29 19.9476C100.525 19.8877 100.799 19.8104 101.111 19.7163C101.422 19.6221 101.767 19.5065 102.146 19.369C102.525 19.232 102.899 19.0864 103.27 18.9319C103.556 18.8124 103.792 18.7007 103.977 18.598C104.162 18.4953 104.331 18.4013 104.482 18.3154C104.634 18.2297 104.785 18.1441 104.937 18.0583C105.089 17.9725 105.265 17.8785 105.467 17.7755C105.653 17.693 105.829 17.5673 106.006 17.4481C105.796 17.6942 105.575 17.9376 105.429 18.2003C105.219 18.5797 105.156 19.0024 105.24 19.4681C105.274 19.6581 105.358 19.8174 105.493 19.9467C105.627 20.0761 105.779 20.1795 105.947 20.2573C106.115 20.3347 106.288 20.3906 106.465 20.4254C106.642 20.4597 106.797 20.4772 106.932 20.4772C107.1 20.4772 107.302 20.4468 107.538 20.3866C107.774 20.3263 108.018 20.2443 108.271 20.1407C108.271 20.1407 113.223 17.8667 114.332 17.0488C114.434 16.974 114.459 16.8723 114.459 16.803C114.459 16.7342 114.373 16.6996 114.206 16.6996Z" fill="#353535"/>
<path d="M86.8569 18.5883L86.8535 18.5897L86.8533 18.5899L86.8569 18.5883Z" fill="#353535"/>
<path d="M47.5585 18.8837C47.5389 19.0702 47.5468 19.2646 47.5836 19.4675C47.6171 19.6574 47.7011 19.8167 47.8362 19.946C47.9707 20.0756 48.1223 20.1789 48.2908 20.2566C48.4589 20.3341 48.6317 20.3899 48.8084 20.4248C48.9853 20.4591 49.1407 20.4766 49.2757 20.4766C49.4439 20.4766 49.6459 20.4461 49.8819 20.386C50.1175 20.3257 50.3618 20.2437 50.6142 20.1401C50.6142 20.1401 55.567 17.866 56.6757 17.0482C56.777 16.9734 56.802 16.8715 56.802 16.8025C56.802 16.7336 56.7175 16.6988 56.5495 16.6988C56.4651 16.6818 56.2843 16.7595 56.0065 16.9317C55.8818 17.0091 55.7401 17.1086 55.5832 17.2277H55.5827C55.5827 17.2277 52.3124 19.3122 50.7247 19.4156H50.6396C50.5551 19.4156 50.4415 19.4027 50.2987 19.3768C50.1943 19.358 50.0789 19.3095 49.9523 19.2312C49.8967 19.1968 49.8525 19.1152 49.8623 19.0495C50.0028 18.108 52.2507 16.499 52.2507 16.499C52.2547 16.4945 52.2584 16.4903 52.2623 16.4859C52.2967 16.455 52.4421 16.3363 52.6979 16.1297C52.9756 15.9057 53.2701 15.6425 53.5818 15.3406C53.8932 15.0389 54.171 14.7285 54.4152 14.4091C54.6593 14.0901 54.7563 13.8358 54.7058 13.6458C54.6888 13.5597 54.6339 13.4736 54.5416 13.387C54.4488 13.3009 54.3434 13.2277 54.2258 13.167C54.1078 13.1068 53.9898 13.0551 53.8723 13.0118C53.7542 12.9691 53.6615 12.9472 53.5944 12.9472C53.3079 12.9472 53.0301 13.0636 52.761 13.2965L52.4635 13.5612L51.3214 14.5773L50.8336 15.0484L49.7221 16.0627L48.965 16.7674C48.4147 17.2985 47.0898 18.4848 46.8395 18.6531C46.5448 18.8517 46.2336 19.0717 45.9051 19.3131C45.712 19.4553 45.5335 19.5905 45.3666 19.7206C44.802 20.104 43.5967 20.7894 43.1901 21.0206C42.7355 21.2794 42.2892 21.5382 41.8516 21.7968C41.178 22.1761 40.5383 22.5085 39.9322 22.7931C39.326 23.0776 38.7281 23.22 38.1389 23.22C37.9536 23.22 37.8315 23.1983 37.7728 23.1553C37.7135 23.1121 37.6775 23.0553 37.6591 22.9872C37.5835 22.7079 37.762 22.4973 37.762 22.4973L39.6795 20.2575C39.8958 20.0104 40.1205 19.7838 40.3535 19.5787C40.3585 19.5736 40.3636 19.5686 40.3686 19.5635C40.8372 19.0324 41.3023 18.5652 41.7632 18.1615C42.2262 17.7564 42.689 17.3726 43.1523 17.0101C43.6152 16.6479 44.0781 16.2857 44.5413 15.9234C45.0042 15.5612 45.4797 15.1474 45.9683 14.6815C46.793 13.8884 47.6391 13.0818 48.5065 12.2622C49.3735 11.4432 50.2366 10.6541 51.0953 9.89475C51.3477 9.67088 51.5789 9.45947 51.7896 9.26097C52.0001 9.0628 52.2104 8.86429 52.4211 8.66578C52.6316 8.46762 52.8462 8.26933 53.0651 8.07071C53.2838 7.87255 53.5281 7.66966 53.7975 7.46263C54.0331 7.27299 54.3489 7.15213 54.7447 7.1004C55.1401 7.04867 55.5655 7.02275 56.0201 7.02275C56.2891 7.02275 56.6176 7.01433 57.005 6.99694C57.3921 6.97989 57.8802 6.9626 58.4699 6.9451C59.0591 6.92826 59.7789 6.92378 60.6293 6.93231C61.4794 6.94117 62.5022 6.97988 63.6979 7.04867C63.9165 7.1004 64.1147 7.0875 64.2915 7.00984C64.4683 6.9323 64.6071 6.83759 64.708 6.72527C64.8091 6.61328 64.8597 6.50544 64.8597 6.40176C64.8597 6.2983 64.7839 6.23815 64.6323 6.22064C64.4808 6.23815 64.2409 6.26407 63.9125 6.2983C63.5842 6.3332 63.2136 6.37191 62.8012 6.41466C62.6684 6.42869 62.5229 6.43598 62.3866 6.44799C62.3924 6.43194 62.4026 6.41814 62.4079 6.40176C62.4565 6.2524 62.4972 6.13525 62.5302 6.04952C62.5331 6.04301 62.5358 6.03762 62.5387 6.03112C62.5585 5.99824 62.6034 5.95784 62.6731 5.91026C62.7488 5.85842 62.8286 5.79816 62.913 5.72915C62.9971 5.66047 63.0729 5.58686 63.1403 5.5091C63.1603 5.48609 63.1787 5.46197 63.1956 5.43672C63.2596 5.34123 63.215 5.20926 63.1094 5.16786C62.9693 5.11298 62.8155 5.04981 62.6479 4.97878C62.4036 4.87531 62.2141 4.82347 62.0796 4.82347C61.9785 4.82347 61.8606 4.85826 61.726 4.92693C61.591 4.99617 61.4691 5.08212 61.3597 5.1857C61.2501 5.28927 61.1617 5.41461 61.0945 5.56094C61.0272 5.70772 61.0102 5.85842 61.0441 6.01361C61.0441 6.03111 61.065 6.08296 61.1073 6.16903C61.149 6.25543 61.2039 6.35014 61.2714 6.4536C61.2887 6.48042 61.3171 6.49882 61.3366 6.52373C60.9571 6.54303 60.586 6.55717 60.238 6.55717C59.8167 6.55717 59.4044 6.55302 59.0002 6.54427C58.5961 6.53563 58.2214 6.52272 57.8765 6.50544C57.5311 6.48839 57.2363 6.47537 56.9924 6.46651C56.7481 6.45809 56.584 6.4536 56.5 6.4536C56.1293 6.4536 55.86 6.41062 55.6917 6.32422C55.5233 6.23815 55.4897 6.06545 55.5908 5.8068C55.6917 5.54804 55.8769 5.29365 56.1464 5.04352C56.4156 4.79351 56.6934 4.54787 56.9799 4.30605C57.266 4.06479 57.5229 3.84025 57.7501 3.63322C57.9774 3.4263 58.0911 3.22824 58.0911 3.03826C58.0911 2.84862 58.0741 2.71475 58.0404 2.63721C58.0068 2.55945 57.9647 2.4993 57.9143 2.45609C57.8637 2.41312 57.8046 2.37844 57.7376 2.35252C57.7037 2.33962 57.6699 2.32133 57.6363 2.29754C57.5702 2.25119 57.4847 2.2439 57.4186 2.28991C57.0216 2.56573 56.6356 2.88397 56.2601 3.2453C55.8473 3.64231 55.4265 4.04729 54.9972 4.46125C54.5678 4.87531 54.1342 5.27233 53.6965 5.65138C53.2585 6.03111 52.7955 6.35014 52.3075 6.60879C52.055 6.74715 51.7601 6.83311 51.4235 6.86767C51.0865 6.90234 50.7542 6.92378 50.4259 6.93231C50.0976 6.94117 49.7819 6.95419 49.4789 6.97113C49.4451 6.97293 49.4125 6.97539 49.3804 6.97797C49.3804 6.97786 49.3804 6.97786 49.3803 6.97786L45.5137 7.17805C45.3957 7.17805 45.1222 7.18692 44.6929 7.20398C44.2635 7.22137 43.7497 7.24718 43.1523 7.28163C42.5544 7.3163 41.9148 7.35513 41.2328 7.39799C40.551 7.44119 39.907 7.48844 39.3008 7.54028C38.9637 7.57507 38.6272 7.5965 38.2905 7.60503C37.9536 7.61389 37.6504 7.62691 37.3813 7.64396C37.1118 7.66113 36.8972 7.69547 36.7374 7.74731C36.5771 7.79904 36.5141 7.87658 36.5479 7.98016C36.5141 8.06656 36.5518 8.13535 36.6616 8.18719C36.7709 8.23881 36.9181 8.28661 37.1035 8.32948C37.2886 8.37268 37.495 8.40702 37.7223 8.43294C37.9494 8.45875 38.1724 8.48063 38.3913 8.49758C38.3915 8.49758 38.3917 8.49758 38.3918 8.49758C38.577 8.46335 38.8293 8.4289 39.1492 8.394C39.4688 8.35978 39.7806 8.32544 40.0837 8.29065C40.4373 8.25631 40.8074 8.22186 41.1949 8.18719L42.5472 7.99228C42.6903 7.97174 42.8342 7.95659 42.9785 7.94941C43.1742 7.93976 43.4551 7.91552 43.8215 7.87658C44.3098 7.82497 44.8444 7.76908 45.4253 7.70849C46.0061 7.64823 46.5828 7.59201 47.1553 7.54028C47.7276 7.48844 49.2093 7.37791 49.5798 7.37791C49.5798 7.37779 49.5797 7.37768 49.5797 7.37768C49.6907 7.38251 49.8081 7.38509 49.9334 7.38509C50.1689 7.38509 50.3921 7.38958 50.6028 7.39799C50.8131 7.40686 50.9855 7.43278 51.1205 7.47553C51.2564 7.51974 51.2915 7.70063 51.1827 7.795C50.1097 8.72604 49.0367 9.62835 47.9636 10.5028C46.8523 11.4085 45.741 12.2751 44.6298 13.1033C44.0065 13.5519 43.4005 13.9873 42.8113 14.4099C42.2217 14.8328 41.6325 15.2338 41.0433 15.6131C40.6728 15.8548 40.2645 16.0918 39.8185 16.3245C39.3722 16.5574 38.9176 16.7818 38.4547 16.9972L35.8661 18.1486C35.866 18.1486 35.8659 18.1486 35.8659 18.1486C31.2797 19.7735 32.3008 18.3002 32.3008 18.3002L36.256 12.8574C36.6349 12.297 36.8244 11.896 36.8244 11.6543C36.8244 11.5507 36.7904 11.4472 36.7232 11.3438C36.6558 11.2403 36.5757 11.1412 36.4834 11.0463C36.3907 10.9517 36.3105 10.8522 36.2434 10.7487C36.176 10.6451 36.1424 10.5417 36.1424 10.4381C36.1424 10.2143 36.2011 10.0415 36.3192 9.92067C36.4368 9.80015 36.5297 9.66202 36.597 9.50671C36.6306 9.42053 36.6053 9.28689 36.5212 9.10577C36.4575 8.9691 36.4076 8.84634 36.3306 8.77687C35.5711 8.09192 33.2133 10.5887 33.2133 10.5887C25.8902 17.2738 24.6242 17.8123 24.6242 17.8123C22.7975 18.8912 21.7825 19.1531 21.2468 19.1782C20.8801 19.1955 20.536 18.9577 20.4458 18.5938C20.4454 18.592 20.4449 18.5902 20.4445 18.5886C20.4024 18.4163 20.4067 18.2005 20.4571 17.9416C20.5077 17.6829 20.5999 17.3684 20.7349 16.9972C20.8695 16.6265 21.0546 16.1651 21.2905 15.6131C21.4251 15.3373 21.5767 15.0483 21.7451 14.7462C21.9133 14.4447 22.0817 14.1511 22.2504 13.8666C22.4184 13.5819 22.5913 13.3192 22.7681 13.0774C22.7698 13.0749 22.7716 13.0725 22.7733 13.0701C23.0445 12.7008 23.3653 12.3729 23.7215 12.089L31.557 5.84551C31.829 5.59685 32.0721 5.31867 32.2867 5.01087C32.3404 4.93355 32.3301 4.82661 32.2652 4.75883C32.13 4.61778 32.0161 4.49278 31.9233 4.38359C31.8052 4.2459 31.6537 4.2284 31.4687 4.33198C31.1991 4.48728 30.6517 4.84097 29.827 5.39273C29.0019 5.94505 28 6.61766 26.8217 7.4109C26.4176 7.68706 26.0261 7.97163 25.6473 8.26473C25.2683 8.55828 24.8347 8.85991 24.3465 9.1703L22.3135 10.4511L20.1793 11.7319C19.2195 12.3358 18.2725 12.9481 17.3382 13.569C16.4035 14.19 15.4648 14.794 14.5221 15.3801C14.1685 15.6045 13.8148 15.82 13.4613 16.027C13.1076 16.234 12.7541 16.441 12.4006 16.6479L10.5443 17.6311C10.3335 17.7347 10.1276 17.8381 9.92541 17.9416C9.43688 18.1833 8.9697 18.3945 8.52384 18.5755C8.07752 18.7567 7.63552 18.9249 7.19793 19.0801C6.47374 19.3218 5.81153 19.5056 5.21522 19.6494C3.23876 20.1256 2.71493 19.8563 2.71493 19.8563C2.53816 19.7875 2.38663 19.6453 2.26038 19.4293C2.13408 19.214 2.07093 18.8561 2.07093 18.3556C2.07093 17.9591 2.14235 17.5495 2.28565 17.1266C2.28565 17.1266 2.81067 15.5494 3.77569 14.3192C3.77569 14.3192 5.66098 12.0597 8.78894 9.58436C9.35905 9.13315 9.94644 8.69608 10.5443 8.26473C11.1418 7.83383 11.7439 7.4109 12.3499 6.99694C13.3768 6.32422 14.3958 5.68617 15.4059 5.08212C16.4161 4.47864 17.38 3.93979 18.2978 3.46512C19.2153 2.99102 20.0569 2.60287 20.8233 2.30091C20.8233 2.30091 23.9755 0.785906 27.0995 0.838984C27.0995 0.838984 29.7185 0.940313 29.1198 2.87005C29.0169 3.20164 28.8377 3.48689 28.6779 3.76271C28.5177 4.03887 28.4083 4.26319 28.3496 4.43544C28.2949 4.59455 28.3947 4.67288 28.6481 4.67064C28.6918 4.6703 28.7344 4.65302 28.7681 4.6244C29.182 4.27272 29.5225 3.87336 29.7893 3.4263C30.0671 2.96061 30.2059 2.52084 30.2059 2.10678C30.2059 1.72749 30.1088 1.41711 29.9155 1.17529C29.7216 0.934029 29.4522 0.748314 29.1073 0.618931C28.7619 0.48966 28.3622 0.398993 27.9076 0.347261C27.4531 0.295532 26.9644 0.269724 26.4427 0.269724C25.6347 0.269724 24.7632 0.330429 23.8289 0.450834C22.8943 0.57169 21.8715 0.787142 20.7603 1.09764C20.5917 1.13231 20.4232 1.17529 20.255 1.22702C20.0886 1.27807 19.9141 1.32925 19.7314 1.38041C19.7272 1.38176 19.7231 1.38299 19.7189 1.38434C19.7189 1.38434 18.7096 1.74488 18.7009 1.74724L17.585 2.15525C17.5802 2.15727 15.8116 2.92302 14.9641 3.41339C14.1135 3.905 13.2592 4.38359 12.4006 4.84939C11.8974 5.10703 11.4069 5.40766 10.9288 5.75081C10.9249 5.75339 10.9209 5.75597 10.917 5.75855C10.917 5.75855 3.84308 10.4032 0.481884 16.2042C0.480599 16.2069 0.209967 16.917 0.126255 17.2948C0.0418136 17.6744 0 17.9934 0 18.2522C0 18.4422 0.0504676 18.7095 0.151446 19.0542C0.252466 19.3994 0.488054 19.7618 0.858635 20.1409C1.26268 20.5549 1.67944 20.8092 2.1088 20.9042C2.53816 20.9989 2.97154 21.0464 3.40943 21.0464C3.40943 21.0464 5.21496 21.4991 15.1156 16.0658L17.9442 14.5651C18.2725 14.384 18.5334 14.2332 18.7271 14.1123C18.9206 13.9918 19.0637 13.9053 19.1564 13.8535C19.2002 13.8291 19.2374 13.8084 19.268 13.7917C19.3359 13.7546 19.4149 13.7372 19.4889 13.7589C19.5673 13.7819 19.6124 13.8393 19.6238 13.9311C19.6403 14.0696 19.6111 14.2546 19.5353 14.4874C19.4603 14.7179 19.3483 14.9824 19.199 15.2803C19.1964 15.2863 19.1937 15.2926 19.191 15.2986L18.3652 17.5165C18.3629 17.5241 18.3605 17.5319 18.3582 17.5393C18.2752 17.8795 18.2217 18.1687 18.1967 18.4074C18.1714 18.6492 18.1754 18.8731 18.2094 19.0801C18.2094 19.0801 18.1719 20.1317 19.5985 20.6842C19.5985 20.6842 20.406 20.8861 21.5558 20.3349C21.5558 20.3349 24.5013 19.4658 34.3619 10.9815C34.5817 10.7923 34.7951 10.7402 34.93 10.7228C34.93 10.7228 35.1855 10.6844 35.4018 10.9593C35.4772 11.0553 35.4835 11.1906 35.4264 11.2991C35.204 11.7238 34.5847 12.8702 34.0966 13.4396C33.4906 14.1471 32.8844 14.8237 32.2782 15.4707C31.6722 16.1175 31.1374 16.7515 30.6745 17.3726C30.2573 17.9316 30.0008 18.5049 29.9048 19.0919C29.9048 19.0919 29.7 20.3391 31.6975 20.1927C31.8988 20.178 32.1559 20.1668 32.4677 20.1152C32.7791 20.0633 33.1116 19.9857 33.4652 19.8822C33.8188 19.7787 34.1806 19.6582 34.5513 19.5199L37.3686 18.3167C37.6799 18.1873 38.1302 17.9505 38.7199 17.6053C39.0395 17.4157 39.3469 17.2347 39.6418 17.062C39.8961 16.9131 40.1353 16.7703 40.3585 16.6341C40.4338 16.5881 40.5353 16.5939 40.5918 16.6625C40.63 16.7087 40.6408 16.7693 40.6267 16.8419C40.6014 16.9715 40.5296 17.1137 40.4119 17.2689C40.294 17.4242 40.1507 17.5884 39.9827 17.7605C39.8142 17.9332 39.6544 18.097 39.5028 18.2522C39.1657 18.5799 38.7957 18.9078 38.3916 19.2353C37.9876 19.5632 37.6041 19.8951 37.2423 20.2314C36.8801 20.5679 36.5771 20.8998 36.3333 21.2276C36.0889 21.5551 35.967 21.8746 35.967 22.1849C35.967 22.3747 36.0088 22.586 36.0933 22.819C36.1773 23.0517 36.2953 23.2673 36.4468 23.4658C36.5985 23.6638 36.7834 23.828 37.0026 23.9573C37.0026 23.9573 38.7208 24.7789 42.6851 22.0686L47.5585 18.8837Z" fill="#353535"/>
</g>
<defs>
<clipPath id="clip0_238_59">
<rect width="121" height="38.0674" fill="white" transform="translate(0 0.269661)"/>
</clipPath>
</defs>
</svg>
