<svg width="85" height="85" viewBox="0 0 85 85" fill="none" xmlns="http://www.w3.org/2000/svg">
<path d="M35.4078 11.6475H31.5563C31.3802 11.6475 31.2112 11.5775 31.0867 11.453C30.9622 11.3284 30.8922 11.1595 30.8922 10.9834C30.8922 10.8073 30.9622 10.6384 31.0867 10.5138C31.2112 10.3893 31.3802 10.3193 31.5563 10.3193H35.4078C35.584 10.3193 35.7529 10.3893 35.8774 10.5138C36.0019 10.6384 36.0719 10.8073 36.0719 10.9834C36.0719 11.1595 36.0019 11.3284 35.8774 11.453C35.7529 11.5775 35.584 11.6475 35.4078 11.6475ZM71.7586 53.51C71.5825 53.51 71.4136 53.44 71.2891 53.3155C71.1645 53.1909 71.0946 53.022 71.0946 52.8459C71.0946 52.6698 71.1645 52.5009 71.2891 52.3763C71.4136 52.2518 71.5825 52.1818 71.7586 52.1818L81.5403 52.1088L73.4188 11.6475H57.9461C57.77 11.6475 57.6011 11.5775 57.4766 11.453C57.352 11.3284 57.2821 11.1595 57.2821 10.9834C57.2821 10.8073 57.352 10.6384 57.4766 10.5138C57.6011 10.3893 57.77 10.3193 57.9461 10.3193H73.9633C74.1166 10.319 74.2653 10.3717 74.3842 10.4686C74.5031 10.5654 74.5848 10.7004 74.6154 10.8506L82.9946 52.6361C83.0142 52.7321 83.0123 52.8313 82.989 52.9266C82.9657 53.0218 82.9216 53.1107 82.8599 53.1869C82.7982 53.263 82.7204 53.3246 82.6321 53.3672C82.5438 53.4097 82.4471 53.4322 82.3491 53.4329L71.7639 53.5126L71.7586 53.51ZM48.6492 11.6475H44.7047C44.5286 11.6475 44.3597 11.5775 44.2351 11.453C44.1106 11.3284 44.0406 11.1595 44.0406 10.9834C44.0406 10.8073 44.1106 10.6384 44.2351 10.5138C44.3597 10.3893 44.5286 10.3193 44.7047 10.3193H48.6492C48.8254 10.3193 48.9943 10.3893 49.1188 10.5138C49.2433 10.6384 49.3133 10.8073 49.3133 10.9834C49.3133 11.1595 49.2433 11.3284 49.1188 11.453C48.9943 11.5775 48.8254 11.6475 48.6492 11.6475Z" fill="#BB3024"/>
<path d="M71.7586 74.6803H16.3891C14.3008 74.6806 12.2374 74.2264 10.3422 73.3492C8.44707 72.4721 6.76549 71.193 5.41425 69.6008C4.063 68.0086 3.07446 66.1413 2.51725 64.1287C1.96003 62.1161 1.8475 60.0064 2.18746 57.9459L8.94762 16.8006C9.24198 14.9904 10.1712 13.344 11.5687 12.1565C12.9663 10.9689 14.741 10.3176 16.575 10.3193H22.2594C22.4355 10.3193 22.6044 10.3893 22.729 10.5138C22.8535 10.6384 22.9235 10.8073 22.9235 10.9834C22.9235 11.1595 22.8535 11.3284 22.729 11.453C22.6044 11.5775 22.4355 11.6475 22.2594 11.6475H16.575C15.0559 11.6466 13.586 12.1864 12.4285 13.1702C11.2709 14.1541 10.5012 15.5177 10.2571 17.0171L3.49699 58.1597C3.18801 60.0303 3.28989 61.9457 3.79556 63.773C4.30124 65.6002 5.19859 67.2955 6.42529 68.7411C7.652 70.1866 9.17866 71.3479 10.8993 72.1442C12.6199 72.9404 14.4932 73.3526 16.3891 73.3522H71.7586C74.3899 73.3522 76.9133 72.3069 78.7739 70.4463C80.6345 68.5858 81.6797 66.0623 81.6797 63.4311C81.6797 60.7998 80.6345 58.2764 78.7739 56.4158C76.9133 54.5552 74.3899 53.51 71.7586 53.51H16.1899C14.5625 53.51 13.0018 54.1564 11.8511 55.3071C10.7004 56.4579 10.0539 58.0186 10.0539 59.6459C10.0539 61.2733 10.7004 62.834 11.8511 63.9847C13.0018 65.1354 14.5625 65.7818 16.1899 65.7818H71.5196C72.3086 65.7818 73.0653 65.4684 73.6232 64.9105C74.1811 64.3526 74.4946 63.5959 74.4946 62.8068C74.4946 62.0178 74.1811 61.2611 73.6232 60.7032C73.0653 60.1453 72.3086 59.8318 71.5196 59.8318H16.4422C16.2661 59.8318 16.0972 59.7619 15.9727 59.6373C15.8481 59.5128 15.7782 59.3439 15.7782 59.1678C15.7782 58.9917 15.8481 58.8228 15.9727 58.6982C16.0972 58.5737 16.2661 58.5037 16.4422 58.5037H71.5196C72.6608 58.5037 73.7553 58.9571 74.5623 59.7641C75.3693 60.5711 75.8227 61.6656 75.8227 62.8068C75.8227 63.9481 75.3693 65.0426 74.5623 65.8496C73.7553 66.6566 72.6608 67.11 71.5196 67.11H16.1899C14.2103 67.11 12.3118 66.3236 10.912 64.9238C9.51221 63.524 8.72582 61.6255 8.72582 59.6459C8.72582 57.6663 9.51221 55.7678 10.912 54.368C12.3118 52.9682 14.2103 52.1818 16.1899 52.1818H71.7586C74.7421 52.1818 77.6034 53.367 79.713 55.4767C81.8227 57.5863 83.0079 60.4476 83.0079 63.4311C83.0079 66.4145 81.8227 69.2758 79.713 71.3855C77.6034 73.4951 74.7421 74.6803 71.7586 74.6803Z" fill="#BB3024"/>
<path d="M75.1454 53.5102C74.9925 53.51 74.8444 53.457 74.7261 53.3602C74.6078 53.2634 74.5265 53.1288 74.4959 52.979L66.1022 11.1178C66.0669 10.9452 66.1017 10.7657 66.1989 10.6187C66.296 10.4718 66.4475 10.3694 66.6201 10.3342C66.7927 10.299 66.9722 10.3338 67.1192 10.4309C67.2662 10.5281 67.3685 10.6796 67.4037 10.8522L75.7975 52.7107C75.8323 52.8833 75.7972 53.0627 75.6998 53.2094C75.6024 53.3561 75.4508 53.4581 75.2782 53.493C75.2346 53.5033 75.1901 53.509 75.1454 53.5102Z" fill="#BB3024"/>
</svg>
