<svg width="85" height="85" viewBox="0 0 85 85" fill="none" xmlns="http://www.w3.org/2000/svg">
<path d="M57.93 8.5C57.8276 8.5009 57.7262 8.52049 57.6308 8.5578C57.6138 8.56375 57.6003 8.5765 57.5832 8.5833C57.5053 8.61804 57.433 8.66448 57.369 8.721C57.3597 8.7295 57.3478 8.73205 57.3384 8.74055C57.2951 8.7822 52.9184 12.9072 42.5 14.8877C32.0807 12.9072 27.7049 8.7822 27.6615 8.74055C27.653 8.73205 27.6403 8.72865 27.6309 8.721C27.5703 8.66826 27.5025 8.62446 27.4295 8.59095C27.4074 8.58075 27.3887 8.5646 27.3666 8.5561C27.2716 8.5196 27.1708 8.5006 27.0691 8.5C26.7206 8.5 18.4144 8.5731 8.87569 14.9795C8.68858 15.1053 8.55911 15.3003 8.51575 15.5216C8.47239 15.7428 8.5187 15.9722 8.64449 16.1593C8.77029 16.3465 8.96526 16.4759 9.18651 16.5193C9.40777 16.5627 9.63718 16.5163 9.82429 16.3906C16.3922 11.9791 22.4315 10.7125 25.3062 10.3479L15.005 23.9853C14.8964 24.1292 14.8364 24.304 14.8337 24.4843C14.8309 24.6646 14.8856 24.8411 14.9897 24.9883L21.3919 34.028L15.7921 39.9016C15.6539 40.0466 15.5714 40.2358 15.5591 40.4358C15.5468 40.6358 15.6055 40.8338 15.725 40.9946L41.8174 76.1566C41.8965 76.2631 41.9994 76.3497 42.118 76.4093C42.2365 76.469 42.3673 76.5 42.5 76.5C42.6327 76.5 42.7635 76.469 42.882 76.4093C43.0006 76.3497 43.1035 76.2631 43.1825 76.1566L69.275 40.9946C69.3943 40.8337 69.453 40.6357 69.4405 40.4357C69.4281 40.2357 69.3454 40.0465 69.207 39.9016L63.608 34.028L70.0102 24.9891C70.1143 24.8419 70.1689 24.6654 70.1661 24.4852C70.1634 24.3049 70.1034 24.1301 69.9949 23.9861L59.6938 10.3471C62.5685 10.7117 68.6077 11.979 75.1757 16.3897C75.3628 16.5108 75.5901 16.5535 75.8084 16.5087C76.0268 16.4639 76.2188 16.3351 76.3431 16.15C76.4674 15.965 76.514 15.7385 76.4729 15.5194C76.4318 15.3003 76.3063 15.1061 76.1234 14.9787C66.5864 8.5731 58.2785 8.5 57.93 8.5ZM56.5675 11.4469L54.2045 21.5696L44.846 16.1347C50.739 14.7747 54.5079 12.7976 56.5675 11.4469ZM53.7999 23.3002L50.7033 36.5602L46.376 25.4804C47.3535 24.9058 49.1325 23.6461 50.5843 21.4336L53.7999 23.3002ZM40.154 16.1347L30.7955 21.5696L28.4325 11.4469C30.492 12.7976 34.2609 14.7747 40.154 16.1347ZM34.4156 21.4336C35.8674 23.6461 37.6456 24.9058 38.624 25.4796L34.2975 36.5594L31.2001 23.3002L34.4156 21.4336ZM17.5159 40.5569L23.1055 34.6945C23.2415 34.5517 23.3237 34.3662 23.338 34.1696C23.3522 33.973 23.2977 33.7775 23.1837 33.6166L16.7365 24.5131L26.667 11.3662L40.8178 71.9567L17.5159 40.5569ZM42.5 71.6856L34.98 39.4842L40.4829 25.3946C40.5067 25.3334 40.5067 25.2705 40.5152 25.2076C40.522 25.1659 40.5373 25.1251 40.5373 25.0835C40.5373 25.0155 40.5178 24.9509 40.5008 24.8846C40.4914 24.8446 40.4897 24.803 40.4744 24.7656C40.4489 24.7052 40.409 24.6551 40.3707 24.6015C40.3452 24.565 40.3274 24.525 40.2959 24.4936C40.2526 24.4485 40.1948 24.4188 40.1404 24.3831C40.103 24.3593 40.0741 24.3261 40.0324 24.3066C40.0069 24.2956 37.6652 23.2356 35.887 20.5785L42.5 16.7382L49.113 20.5785C47.3399 23.2262 45.0075 24.2887 44.9675 24.3066C44.9199 24.3279 44.8868 24.3644 44.8451 24.3924C44.7975 24.4247 44.7448 24.4502 44.7057 24.491C44.6666 24.5301 44.6437 24.5786 44.6131 24.6245C44.5833 24.6695 44.5476 24.7103 44.5264 24.7605C44.506 24.8098 44.5026 24.8633 44.4924 24.916C44.4805 24.9704 44.4626 25.0223 44.4618 25.0792C44.4618 25.1336 44.4796 25.1872 44.4907 25.2416C44.4992 25.2926 44.4975 25.3436 44.517 25.3946L50.0199 39.4842L42.5 71.6856ZM68.2635 24.514L61.8162 33.6166C61.7023 33.7775 61.6478 33.973 61.662 34.1696C61.6763 34.3662 61.7585 34.5517 61.8944 34.6945L67.484 40.5569L44.1821 71.9559L58.3329 11.3662L68.2635 24.514Z" fill="#BB3024"/>
<path d="M23.1395 41.4306C23.1395 41.656 23.2291 41.8722 23.3885 42.0316C23.5479 42.191 23.7641 42.2806 23.9895 42.2806H26.9101C27.1356 42.2806 27.3518 42.191 27.5112 42.0316C27.6706 41.8722 27.7601 41.656 27.7601 41.4306C27.7601 41.2051 27.6706 40.9889 27.5112 40.8295C27.3518 40.6701 27.1356 40.5806 26.9101 40.5806H23.9895C23.7641 40.5806 23.5479 40.6701 23.3885 40.8295C23.2291 40.9889 23.1395 41.2051 23.1395 41.4306ZM57.239 41.4306C57.239 41.656 57.3285 41.8722 57.4879 42.0316C57.6473 42.191 57.8635 42.2806 58.089 42.2806H61.0104C61.2359 42.2806 61.4521 42.191 61.6115 42.0316C61.7709 41.8722 61.8604 41.656 61.8604 41.4306C61.8604 41.2051 61.7709 40.9889 61.6115 40.8295C61.4521 40.6701 61.2359 40.5806 61.0104 40.5806H58.0898C57.8644 40.5806 57.6482 40.6701 57.4888 40.8295C57.3294 40.9889 57.2398 41.2051 57.2398 41.4306H57.239Z" fill="#BB3024"/>
</svg>
