<svg width="34" height="34" viewBox="0 0 34 34" fill="none" xmlns="http://www.w3.org/2000/svg">
<path fill-rule="evenodd" clip-rule="evenodd" d="M0 17C0 7.61116 7.61116 0 17 0C26.3888 0 34 7.61116 34 17C34 26.3888 26.3888 34 17 34C7.61116 34 0 26.3888 0 17ZM17 8.5C21.675 8.5 25.5 12.325 25.5 17C25.5 21.25 22.4188 24.8625 18.1688 25.5V19.4437H20.1875L20.6125 17H18.275V15.4062C18.275 14.7687 18.5938 14.1313 19.6562 14.1313H20.7188V12.0063C20.7188 12.0063 19.7625 11.7938 18.8063 11.7938C16.8938 11.7938 15.6187 12.9625 15.6187 15.0875V17H13.4937V19.4437H15.6187V25.3937C11.5812 24.7562 8.5 21.25 8.5 17C8.5 12.325 12.325 8.5 17 8.5Z" fill="#BB3024"/>
</svg>
