<svg width="75" height="75" viewBox="0 0 75 75" fill="none" xmlns="http://www.w3.org/2000/svg">
<g clip-path="url(#clip0_23_466)">
<path d="M74.1782 74.9766C74.0101 74.9767 73.8471 74.9187 73.7168 74.8125L3.04102 17.1562C3.02197 17.1416 3.00293 17.124 2.98535 17.1064C1.11621 15.2373 0.0864258 12.7412 0.0864258 10.0796C0.0864258 7.42383 1.11182 4.93359 2.97363 3.06445C2.97803 3.06006 2.98242 3.05713 2.98535 3.05273C4.91162 1.12646 7.58496 0.0219727 10.3198 0.0219727C13.062 0.0219727 15.4673 1.11768 17.0903 3.10693L74.7114 73.7388C74.8359 73.8706 74.9136 74.0493 74.9136 74.2456C74.9136 74.6499 74.5869 74.9766 74.1826 74.9766H74.1782ZM3.99609 16.0459L69.0513 69.1172L15.9551 4.03271C14.6162 2.39063 12.6138 1.48682 10.3198 1.48682C7.97314 1.48682 5.68213 2.43164 4.02978 4.07959L4.021 4.08838C0.725098 7.38281 0.716309 12.7397 3.99609 16.0459Z" fill="#BB3024"/>
<path d="M12.1772 17.0991C10.8735 17.0991 9.64746 16.5923 8.72461 15.6694C7.80322 14.7466 7.29492 13.5205 7.29492 12.2168C7.29492 10.9131 7.80322 9.68555 8.72461 8.76416C9.64746 7.84131 10.8735 7.33447 12.1772 7.33447C13.4824 7.33447 14.7085 7.84131 15.6299 8.76416C16.5527 9.68701 17.061 10.9131 17.061 12.2168C17.061 13.5205 16.5527 14.7466 15.6299 15.6694C14.7085 16.5908 13.4824 17.0991 12.1772 17.0991ZM12.1772 8.79785C11.2646 8.79785 10.4062 9.15381 9.76025 9.7998C9.11426 10.4443 8.7583 11.3027 8.7583 12.2168C8.7583 13.1294 9.11426 13.9878 9.76025 14.6338C10.4062 15.2798 11.2646 15.6357 12.1772 15.6357C13.0913 15.6357 13.9497 15.2798 14.5957 14.6338C15.2402 13.9878 15.5962 13.1294 15.5962 12.2168C15.5962 11.3027 15.2402 10.4443 14.5957 9.7998C14.2788 9.48126 13.9019 9.22869 13.4868 9.05671C13.0717 8.88473 12.6266 8.79675 12.1772 8.79785Z" fill="#BB3024"/>
<path d="M4.48969 48.2082C4.2685 48.2082 4.04878 48.1086 3.90522 47.9167C0.143502 42.9289 -0.707572 35.0436 1.62885 26.8258C2.75971 22.8444 4.5644 19.1427 6.84809 16.1208C9.3061 12.8688 12.2636 10.5046 15.4013 9.28287C15.7778 9.13639 16.2011 9.32389 16.3491 9.70035C16.4941 10.0768 16.3081 10.5016 15.9316 10.6481C10.2553 12.8556 5.3144 19.2087 3.03657 27.2257C0.826119 35.0055 1.58784 42.4103 5.07417 47.0363C5.19088 47.1914 5.24131 47.3864 5.2144 47.5787C5.18748 47.7709 5.08543 47.9446 4.93061 48.0617C4.79878 48.1613 4.6435 48.2082 4.48969 48.2082ZM44.77 21.0793C39.3867 21.0793 35.7934 18.1276 32.3159 15.2726C28.9291 12.4909 25.7285 9.86295 20.9531 9.75309C20.5488 9.7443 20.2294 9.40885 20.2382 9.00455C20.247 8.60026 20.5825 8.28238 20.9868 8.28971C26.2675 8.41129 29.8154 11.3249 33.2446 14.1418C36.6738 16.9557 39.9125 19.6159 44.77 19.6159H44.8212C47.5517 19.6056 49.6113 18.2565 50.9384 15.6081C51.8496 13.7917 52.1059 11.9401 52.1572 11.5036C52.0341 10.9352 51.2534 7.82389 48.6752 6.23014C46.8471 5.10074 44.4843 4.95279 41.6513 5.79215C41.2646 5.90787 40.8559 5.68668 40.7416 5.2985C40.6259 4.91178 40.8471 4.50455 41.2353 4.38883C44.4916 3.4235 47.2587 3.62711 49.4589 4.99381C52.8471 7.09733 53.5869 11.1711 53.6176 11.3439C53.6279 11.404 53.6308 11.467 53.6249 11.5285C53.6176 11.6252 53.4169 13.9074 52.2685 16.2233C50.6967 19.3874 48.123 21.0661 44.8271 21.0793H44.77Z" fill="#BB3024"/>
</g>
<defs>
<clipPath id="clip0_23_466">
<rect width="75" height="75" fill="white"/>
</clipPath>
</defs>
</svg>
