<svg width="34" height="34" viewBox="0 0 34 34" fill="none" xmlns="http://www.w3.org/2000/svg">
<path fill-rule="evenodd" clip-rule="evenodd" d="M17 34C7.61116 34 0 26.3888 0 17C0 7.61116 7.61116 0 17 0C26.3888 0 34 7.61116 34 17C34 26.3888 26.3888 34 17 34ZM17.7351 12.7578C16.2125 13.3911 13.1696 14.7019 8.60616 16.6901C7.86514 16.9847 7.47696 17.273 7.44162 17.5549C7.3819 18.0313 7.97847 18.2189 8.79085 18.4743C8.90135 18.5091 9.01585 18.5451 9.13323 18.5832C9.93248 18.843 11.0076 19.147 11.5665 19.1591C12.0735 19.17 12.6394 18.961 13.2641 18.532C17.5279 15.6539 19.7288 14.1991 19.867 14.1678C19.9645 14.1456 20.0996 14.1178 20.1911 14.1992C20.2826 14.2805 20.2736 14.4346 20.2639 14.4759C20.2048 14.7279 17.8631 16.905 16.6512 18.0317C16.2734 18.3829 16.0054 18.632 15.9506 18.6889C15.8279 18.8164 15.7028 18.937 15.5826 19.0529C14.8401 19.7687 14.2833 20.3054 15.6135 21.182C16.2527 21.6032 16.7642 21.9516 17.2745 22.2991C17.8318 22.6786 18.3877 23.0572 19.1069 23.5286C19.2901 23.6487 19.4651 23.7735 19.6355 23.895C20.2841 24.3574 20.8668 24.7728 21.5867 24.7065C22.0049 24.668 22.437 24.2747 22.6564 23.1016C23.175 20.3293 24.1944 14.3226 24.4299 11.8474C24.4506 11.6305 24.4246 11.353 24.4038 11.2311C24.3829 11.1093 24.3393 10.9357 24.181 10.8072C23.9934 10.655 23.7039 10.6229 23.5744 10.6251C22.9856 10.6356 22.0823 10.9497 17.7351 12.7578Z" fill="#BB3024"/>
</svg>
